<?xml version="1.0" encoding="utf-8"?>
<!-- Generator: Adobe Illustrator 23.0.1, SVG Export Plug-In . SVG Version: 6.00 Build 0)  -->
<svg version="1.1" id="Layer_1" xmlns="http://www.w3.org/2000/svg" xmlns:xlink="http://www.w3.org/1999/xlink" x="0px" y="0px"
	 viewBox="0 0 160 160" style="enable-background:new 0 0 160 160;" xml:space="preserve">
<style type="text/css">
	.st0{fill:#8E9295;}
</style>
<g>
	<g>
		<circle class="st0" cx="7.5" cy="7.5" r="3"/>
		<circle class="st0" cx="7.5" cy="23.6" r="3"/>
		<circle class="st0" cx="7.5" cy="39.7" r="3"/>
		<circle class="st0" cx="7.5" cy="55.8" r="3"/>
		<circle class="st0" cx="7.5" cy="71.9" r="3"/>
		<circle class="st0" cx="7.5" cy="88.1" r="3"/>
		<circle class="st0" cx="7.5" cy="104.2" r="3"/>
		<circle class="st0" cx="7.5" cy="120.3" r="3"/>
		<circle class="st0" cx="7.5" cy="136.4" r="3"/>
		<circle class="st0" cx="7.5" cy="152.5" r="3"/>
	</g>
	<g>
		<circle class="st0" cx="23.6" cy="7.5" r="3"/>
		<circle class="st0" cx="23.6" cy="23.6" r="3"/>
		<circle class="st0" cx="23.6" cy="39.7" r="3"/>
		<circle class="st0" cx="23.6" cy="55.8" r="3"/>
		<circle class="st0" cx="23.6" cy="71.9" r="3"/>
		<circle class="st0" cx="23.6" cy="88.1" r="3"/>
		<circle class="st0" cx="23.6" cy="104.2" r="3"/>
		<circle class="st0" cx="23.6" cy="120.3" r="3"/>
		<circle class="st0" cx="23.6" cy="136.4" r="3"/>
		<circle class="st0" cx="23.6" cy="152.5" r="3"/>
	</g>
	<g>
		<circle class="st0" cx="39.7" cy="7.5" r="3"/>
		<circle class="st0" cx="39.7" cy="23.6" r="3"/>
		<circle class="st0" cx="39.7" cy="39.7" r="3"/>
		<circle class="st0" cx="39.7" cy="55.8" r="3"/>
		<circle class="st0" cx="39.7" cy="71.9" r="3"/>
		<circle class="st0" cx="39.7" cy="88.1" r="3"/>
		<circle class="st0" cx="39.7" cy="104.2" r="3"/>
		<circle class="st0" cx="39.7" cy="120.3" r="3"/>
		<circle class="st0" cx="39.7" cy="136.4" r="3"/>
		<circle class="st0" cx="39.7" cy="152.5" r="3"/>
	</g>
	<g>
		<circle class="st0" cx="55.8" cy="7.5" r="3"/>
		<circle class="st0" cx="55.8" cy="23.6" r="3"/>
		<circle class="st0" cx="55.8" cy="39.7" r="3"/>
		<circle class="st0" cx="55.8" cy="55.8" r="3"/>
		<circle class="st0" cx="55.8" cy="71.9" r="3"/>
		<circle class="st0" cx="55.8" cy="88.1" r="3"/>
		<circle class="st0" cx="55.8" cy="104.2" r="3"/>
		<circle class="st0" cx="55.8" cy="120.3" r="3"/>
		<circle class="st0" cx="55.8" cy="136.4" r="3"/>
		<circle class="st0" cx="55.8" cy="152.5" r="3"/>
	</g>
	<g>
		<circle class="st0" cx="71.9" cy="7.5" r="3"/>
		<circle class="st0" cx="71.9" cy="23.6" r="3"/>
		<circle class="st0" cx="71.9" cy="39.7" r="3"/>
		<circle class="st0" cx="71.9" cy="55.8" r="3"/>
		<circle class="st0" cx="71.9" cy="71.9" r="3"/>
		<circle class="st0" cx="71.9" cy="88.1" r="3"/>
		<circle class="st0" cx="71.9" cy="104.2" r="3"/>
		<circle class="st0" cx="71.9" cy="120.3" r="3"/>
		<circle class="st0" cx="71.9" cy="136.4" r="3"/>
		<circle class="st0" cx="71.9" cy="152.5" r="3"/>
	</g>
	<g>
		<circle class="st0" cx="88.1" cy="7.5" r="3"/>
		<circle class="st0" cx="88.1" cy="23.6" r="3"/>
		<circle class="st0" cx="88.1" cy="39.7" r="3"/>
		<circle class="st0" cx="88.1" cy="55.8" r="3"/>
		<circle class="st0" cx="88.1" cy="71.9" r="3"/>
		<circle class="st0" cx="88.1" cy="88.1" r="3"/>
		<circle class="st0" cx="88.1" cy="104.2" r="3"/>
		<circle class="st0" cx="88.1" cy="120.3" r="3"/>
		<circle class="st0" cx="88.1" cy="136.4" r="3"/>
		<circle class="st0" cx="88.1" cy="152.5" r="3"/>
	</g>
	<g>
		<circle class="st0" cx="104.2" cy="7.5" r="3"/>
		<circle class="st0" cx="104.2" cy="23.6" r="3"/>
		<circle class="st0" cx="104.2" cy="39.7" r="3"/>
		<circle class="st0" cx="104.2" cy="55.8" r="3"/>
		<circle class="st0" cx="104.2" cy="71.9" r="3"/>
		<circle class="st0" cx="104.2" cy="88.1" r="3"/>
		<circle class="st0" cx="104.2" cy="104.2" r="3"/>
		<circle class="st0" cx="104.2" cy="120.3" r="3"/>
		<circle class="st0" cx="104.2" cy="136.4" r="3"/>
		<circle class="st0" cx="104.2" cy="152.5" r="3"/>
	</g>
	<g>
		<circle class="st0" cx="120.3" cy="7.5" r="3"/>
		<circle class="st0" cx="120.3" cy="23.6" r="3"/>
		<circle class="st0" cx="120.3" cy="39.7" r="3"/>
		<circle class="st0" cx="120.3" cy="55.8" r="3"/>
		<circle class="st0" cx="120.3" cy="71.9" r="3"/>
		<circle class="st0" cx="120.3" cy="88.1" r="3"/>
		<circle class="st0" cx="120.3" cy="104.2" r="3"/>
		<circle class="st0" cx="120.3" cy="120.3" r="3"/>
		<circle class="st0" cx="120.3" cy="136.4" r="3"/>
		<circle class="st0" cx="120.3" cy="152.5" r="3"/>
	</g>
	<g>
		<circle class="st0" cx="136.4" cy="7.5" r="3"/>
		<circle class="st0" cx="136.4" cy="23.6" r="3"/>
		<circle class="st0" cx="136.4" cy="39.7" r="3"/>
		<circle class="st0" cx="136.4" cy="55.8" r="3"/>
		<circle class="st0" cx="136.4" cy="71.9" r="3"/>
		<circle class="st0" cx="136.4" cy="88.1" r="3"/>
		<circle class="st0" cx="136.4" cy="104.2" r="3"/>
		<circle class="st0" cx="136.4" cy="120.3" r="3"/>
		<circle class="st0" cx="136.4" cy="136.4" r="3"/>
		<circle class="st0" cx="136.4" cy="152.5" r="3"/>
	</g>
	<g>
		<circle class="st0" cx="152.5" cy="7.5" r="3"/>
		<circle class="st0" cx="152.5" cy="23.6" r="3"/>
		<circle class="st0" cx="152.5" cy="39.7" r="3"/>
		<circle class="st0" cx="152.5" cy="55.8" r="3"/>
		<circle class="st0" cx="152.5" cy="71.9" r="3"/>
		<circle class="st0" cx="152.5" cy="88.1" r="3"/>
		<circle class="st0" cx="152.5" cy="104.2" r="3"/>
		<circle class="st0" cx="152.5" cy="120.3" r="3"/>
		<circle class="st0" cx="152.5" cy="136.4" r="3"/>
		<circle class="st0" cx="152.5" cy="152.5" r="3"/>
	</g>
</g>
</svg>
