<svg id="Capa_1" data-name="Capa 1" xmlns="http://www.w3.org/2000/svg" xmlns:xlink="http://www.w3.org/1999/xlink" viewBox="0 0 1947.98 357.8"><defs><style>.cls-1{fill:none;}.cls-2{clip-path:url(#clip-path);}.cls-3{fill:url(#Degradado_sin_nombre_2);}</style><clipPath id="clip-path" transform="translate(-87.2 -699.74)"><rect class="cls-1" x="-82.3" y="527.1" width="2002.3" height="472.9"/></clipPath><linearGradient id="Degradado_sin_nombre_2" x1="87.2" y1="121.36" x2="2035.18" y2="121.36" gradientTransform="matrix(1, 0, 0, -1, 0, 1000)" gradientUnits="userSpaceOnUse"><stop offset="0" stop-color="#ff4c8e"/><stop offset="1" stop-color="#ffab7f"/></linearGradient></defs><title>hero-area</title><g class="cls-2"><path class="cls-3" d="M1245.4,829c212.2-21.9,411.9-126,625.1-129.2,37.4-.6,77.2,2.8,107.4,25,48.3,35.5,54.7,103.9,56.8,163.8,1.5,42.5,1.2,90-28.1,120.9-28.6,30.1-74.7,33.6-116.2,34.3-309.3,5.4-618.3-33.3-927.5-24.6-287.6,8.1-599.8,81.8-875.7.4,74.7-111.5,223.2-200.7,355.7-222.8s268-7.2,401.2,9.9,267.7,36.1,401.3,22.3Z" transform="translate(-87.2 -699.74)"/></g></svg>